<svg width="132" height="132" fill="none" xmlns="http://www.w3.org/2000/svg"><path d="M65.18 11.001l.82.37.82-.37 18.735-8.428 10.443 18.524.429.76.85.203 19.979 4.754-1.888 21.474-.073.822.529.634L129.395 66l-13.571 16.256-.529.634.073.822 1.888 21.474-19.979 4.754-.848.202-.43.759-10.442 18.463-18.737-8.427-.823-.372-.822.373-18.735 8.485L36 110.964l-.43-.759-.848-.202-19.98-4.755 1.89-21.536.071-.822-.528-.634L2.603 65.997 16.178 49.68l.526-.633-.071-.82-1.89-21.533 19.975-4.695.852-.2.431-.762L46.442 2.572l18.738 8.429z" stroke="#F8F200" stroke-width="4"/><path d="M54.304 90.084l-5.833-5.834c-2.334-2.333-4.667-2.333-7 0l-5.41 5.41 2.334 2.333 5.409-5.41c.778-.777 1.548-.784 2.312-.02l.021.02-4.073 4.074c-1.951 1.951-1.972 3.882-.063 5.791 1.98 1.98 3.945 1.994 5.897.042l6.406-6.406zm-9.927 4.073c-.382-.382-.375-.77.02-1.167l4.074-4.073 1.167 1.167-4.073 4.073c-.396.396-.792.396-1.188 0zm21.7-15.846l-3.33 3.33-7.17.17-1.167 1.167 3.5 3.5-2.333 2.333-9.334-9.334 2.334-2.333 3.5 3.5 1.167-1.167.19-7.19 3.31-3.31-.106 9.44 9.44-.106zM64.39 61.33l7 7.001-3.5 3.5c-.778.778-1.555.778-2.333 0L59.722 66l-2.333 2.333 5.833 5.834c2.334 2.333 4.667 2.333 7 0L74.89 69.5l2.333 2.333 2.44-2.44-4.667-4.666L73.723 66l-7-7-2.334 2.333zm22.916-4.248l-2.334 2.334-.996-.997c-.396 2.008-1.16 3.578-2.291 4.71-2.334 2.333-4.667 2.333-7 0l-6.047-6.047 2.334-2.333 6.046 6.046c.763.763 1.541.763 2.333 0 1.358-1.754 1.782-3.663 1.273-5.728l-4.985-4.985 2.333-2.333 9.334 9.333zm-5.091-7.636c-1.98-1.98-1.994-3.946-.043-5.898l6.407-6.406 9.334 9.334-2.334 2.333-3.5-3.5-1.04 1.04.573 6.427-3.033 3.034-.573-6.428c-1.952 1.952-3.882 1.973-5.791.064zm6.364-7.637l-4.073 4.073c-.396.396-.382.806.042 1.23.354.354.729.333 1.125-.063l4.073-4.073-1.167-1.167z" fill="#F8F200"/></svg>